<svg width="9" height="8" viewBox="0 0 9 8" fill="none" xmlns="http://www.w3.org/2000/svg">
<path d="M8.67969 4.69922L5.55469 7.82422C5.4375 7.94141 5.28125 8 5.125 8C4.94922 8 4.79297 7.94141 4.67578 7.82422C4.42188 7.58984 4.42188 7.17969 4.67578 6.94531L6.72656 4.875H0.75C0.398438 4.875 0.125 4.60156 0.125 4.25C0.125 3.91797 0.398438 3.625 0.75 3.625H6.72656L4.67578 1.57422C4.42188 1.33984 4.42188 0.929688 4.67578 0.695312C4.91016 0.441406 5.32031 0.441406 5.55469 0.695312L8.67969 3.82031C8.93359 4.05469 8.93359 4.46484 8.67969 4.69922Z" fill="#575759"/>
</svg>
