<svg width="19" height="16" viewBox="0 0 19 16" fill="none" xmlns="http://www.w3.org/2000/svg">
<path d="M17.8594 9.39844L11.6094 15.6484C11.375 15.8828 11.0625 16 10.75 16C10.3984 16 10.0859 15.8828 9.85156 15.6484C9.34375 15.1797 9.34375 14.3594 9.85156 13.8906L13.9531 9.75H2C1.29688 9.75 0.75 9.20312 0.75 8.5C0.75 7.83594 1.29688 7.25 2 7.25H13.9531L9.85156 3.14844C9.34375 2.67969 9.34375 1.85938 9.85156 1.39062C10.3203 0.882812 11.1406 0.882812 11.6094 1.39062L17.8594 7.64062C18.3672 8.10938 18.3672 8.92969 17.8594 9.39844Z" fill="white"/>
</svg>
