<svg width="20" height="20" viewBox="0 0 20 20" fill="none" xmlns="http://www.w3.org/2000/svg">
<path d="M8.49219 11.3398C8.49219 12.1992 7.89062 12.457 7.16016 12.457H5.22656V10.1797H7.20312C7.97656 10.1797 8.49219 10.5234 8.49219 11.3398ZM8.14844 7.81641C8.14844 7.04297 7.58984 6.87109 6.90234 6.87109H5.22656V8.80469H7.07422C7.71875 8.80469 8.14844 8.50391 8.14844 7.81641ZM13.8633 8.80469C13.0469 8.80469 12.5312 9.32031 12.4883 10.0938H15.1523C15.0664 9.32031 14.6797 8.80469 13.8633 8.80469ZM19.75 2.1875V17.3125C19.75 18.4727 18.8047 19.375 17.6875 19.375H2.5625C1.40234 19.375 0.5 18.4727 0.5 17.3125V2.1875C0.5 1.07031 1.40234 0.125 2.5625 0.125H17.6875C18.8047 0.125 19.75 1.07031 19.75 2.1875ZM12.1445 6.69922H15.4961V5.92578H12.1445V6.69922ZM10.2969 11.4688C10.2969 10.4375 9.82422 9.53516 8.79297 9.23438C9.52344 8.89062 9.91016 8.46094 9.91016 7.64453C9.91016 6.01172 8.70703 5.625 7.28906 5.625H3.42188V13.875H7.41797C8.92188 13.832 10.2969 13.1445 10.2969 11.4688ZM16.8281 10.8242C16.8281 9.0625 15.7539 7.60156 13.9062 7.60156C12.1016 7.60156 10.8555 8.93359 10.8555 10.7383C10.8555 12.5859 12.0156 13.875 13.9062 13.875C15.3242 13.875 16.2695 13.2305 16.6992 11.8555H15.2383C15.1094 12.3711 14.4648 12.6289 13.9492 12.6289C13.0039 12.6289 12.4883 12.0703 12.4883 11.125H16.7852C16.7852 11.0391 16.8281 10.9102 16.8281 10.8242Z" fill="#0071E3"/>
</svg>
