<svg width="56" height="49" viewBox="0 0 56 49" fill="none" xmlns="http://www.w3.org/2000/svg">
<path d="M52.3182 38.3999H3.67275C3.4273 38.3999 3.22729 38.1999 3.22729 37.9544V34.8635H52.7728V37.9453C52.7728 38.1908 52.5728 38.3908 52.3273 38.3908L52.3182 38.3999Z" fill="#2BC48A"/>
<path d="M8.72729 27.5911H15.8909V20.9638H8.72729V27.5911ZM28.7273 15.0547V27.5911H35.8909V15.0547H28.7273Z" fill="#2BC48A"/>
<path d="M52.2818 0H3.71818C1.94545 0 0.5 1.43636 0.5 3.21818V37.9091C0.5 39.6818 1.93636 41.1182 3.71818 41.1182H21.1091V45.4273H18.6091C17.8545 45.4273 17.2455 46.0364 17.2455 46.7909C17.2455 47.5455 17.8545 48.1545 18.6091 48.1545H38.0364C38.7909 48.1545 39.4 47.5455 39.4 46.7909C39.4 46.0364 38.7909 45.4273 38.0364 45.4273H35.7636V41.1182H52.2818C54.0545 41.1182 55.5 39.6818 55.5 37.9091V3.21818C55.5 1.44546 54.0636 0 52.2818 0ZM33.0364 45.4273H23.8364V41.1182H33.0364V45.4273ZM52.2818 38.3909H3.71818C3.44545 38.3909 3.22727 38.1727 3.22727 37.9091V34.8636H52.7727V37.9091C52.7727 38.1727 52.5545 38.3909 52.2818 38.3909ZM52.7727 32.1273H3.22727V3.20909C3.22727 2.93636 3.44545 2.71819 3.71818 2.71819H52.2818C52.5455 2.71819 52.7727 2.93636 52.7727 3.20909V32.1273ZM48.7273 27.5818H47.2455V7.91818H37.3545V27.5818H27.2455V7.91818H17.3545V27.5818H7.09091C6.33636 27.5818 5.72727 28.1909 5.72727 28.9454C5.72727 29.7 6.33636 30.3091 7.09091 30.3091H48.7273C49.4818 30.3091 50.0909 29.7 50.0909 28.9454C50.0909 28.1909 49.4818 27.5818 48.7273 27.5818ZM24.5273 27.5818H20.0909V10.6455H24.5273V27.5818ZM44.5273 27.5818H40.0909V10.6455H44.5273V27.5818Z" fill="#1D1D1F"/>
</svg>
