<svg width="48" height="48" viewBox="0 0 48 48" fill="none" xmlns="http://www.w3.org/2000/svg">
<path d="M0 24C0 10.7812 10.6875 0 24 0C37.2188 0 48 10.7812 48 24C48 37.3125 37.2188 48 24 48C10.6875 48 0 37.3125 0 24ZM34.7812 19.875C35.8125 18.8438 35.8125 17.25 34.7812 16.2188C33.75 15.1875 32.1562 15.1875 31.125 16.2188L21 26.3438L16.7812 22.2188C15.75 21.1875 14.1562 21.1875 13.125 22.2188C12.0938 23.25 12.0938 24.8438 13.125 25.875L19.125 31.875C20.1562 32.9062 21.75 32.9062 22.7812 31.875L34.7812 19.875Z" fill="#2BC48A"/>
</svg>
