<svg width="52" height="60" viewBox="0 0 52 60" fill="none" xmlns="http://www.w3.org/2000/svg">
<path d="M23.9077 32.0579C22.519 31.5894 21.4648 30.5521 20.6199 29.1382C19.4821 27.2057 18.93 24.6374 18.93 22.6463C18.93 18.9402 21.9333 15.9453 25.6394 15.9369C29.3455 15.9369 32.3405 18.9402 32.3489 22.6463C32.3489 24.6374 31.8218 27.2141 30.684 29.1382C29.655 30.8532 28.3332 32.0245 26.4175 32.2838C26.4175 32.2838 24.6857 32.4762 23.9077 32.0579Z" fill="#2BC48A"/>
<path d="M25.7649 5.34583C25.0705 5.34583 24.51 5.90634 24.51 6.60071V10.5829C24.51 11.2772 25.0705 11.8377 25.7649 11.8377C26.4593 11.8377 27.0198 11.2772 27.0198 10.5829V6.60071C27.0198 5.90634 26.4593 5.34583 25.7649 5.34583ZM13.6929 26.0179C14.3873 26.0179 14.9478 25.4574 14.9478 24.763C14.9478 24.0686 14.3873 23.5081 13.6929 23.5081H9.71081C9.01645 23.5081 8.45593 24.0686 8.45593 24.763C8.45593 25.4574 9.01645 26.0179 9.71081 26.0179H13.6929ZM17.7337 8.34917C17.3823 7.75519 16.6127 7.55442 16.0103 7.91415C15.4163 8.26552 15.2155 9.03518 15.5753 9.63752L17.6082 13.0592C17.8424 13.4524 18.2607 13.6699 18.6874 13.6699C18.9049 13.6699 19.1224 13.6113 19.3316 13.4942C19.9255 13.1428 20.1263 12.3731 19.7666 11.7708L17.7337 8.34917ZM14.7972 16.6397L11.2919 14.7491C10.6812 14.4228 9.91995 14.6487 9.59368 15.2594C9.26741 15.8701 9.4933 16.6314 10.104 16.9577L13.6093 18.8483C13.8017 18.9487 14.0025 18.9989 14.2033 18.9989C14.6467 18.9989 15.0817 18.7647 15.3076 18.338C15.6338 17.7273 15.408 16.966 14.7972 16.6397ZM41.8357 23.5081H37.8536C37.1592 23.5081 36.5987 24.0686 36.5987 24.763C36.5987 25.4574 37.1592 26.0179 37.8536 26.0179H41.8357C42.5301 26.0179 43.0906 25.4574 43.0906 24.763C43.0906 24.0686 42.5301 23.5081 41.8357 23.5081ZM35.5362 7.91415C34.9423 7.56279 34.1726 7.75519 33.8129 8.34917L31.78 11.7708C31.4286 12.3648 31.621 13.1344 32.215 13.4942C32.4158 13.6113 32.6333 13.6699 32.8592 13.6699C33.2858 13.6699 33.7041 13.4524 33.9384 13.0592L35.9713 9.63752C36.331 9.04354 36.1302 8.27389 35.5362 7.91415ZM36.2473 18.338C36.4732 18.7563 36.9082 18.9989 37.3516 18.9989C37.5524 18.9989 37.7532 18.9487 37.9456 18.8483L41.4509 16.9577C42.0616 16.6314 42.2875 15.8617 41.9612 15.2594C41.635 14.6487 40.8653 14.4228 40.263 14.7491L36.7577 16.6397C36.1469 16.966 35.9211 17.7357 36.2473 18.338ZM13.6093 29.5316L10.104 31.4222C9.4933 31.7485 9.26741 32.5098 9.59368 33.1205C9.81956 33.5388 10.2546 33.7814 10.698 33.7814C10.8988 33.7814 11.0995 33.7312 11.2919 33.6308L14.7972 31.7401C15.408 31.4139 15.6338 30.6526 15.3076 30.0419C14.9813 29.4311 14.22 29.2053 13.6093 29.5316ZM41.4509 31.4222L37.9456 29.5316C37.3349 29.2053 36.5736 29.4311 36.2473 30.0419C35.9211 30.6526 36.1469 31.4139 36.7577 31.7401L40.263 33.6308C40.4554 33.7312 40.6561 33.7814 40.8569 33.7814C41.3003 33.7814 41.7353 33.5472 41.9612 33.1205C42.2875 32.5098 42.0616 31.7485 41.4509 31.4222Z" fill="#2BC48A"/>
<path d="M41.3171 0H10.7147C5.07612 0 0.5 4.57612 0.5 10.2147V37.3368C0.5 42.9754 5.06776 47.5516 10.7147 47.5516H33.7209L43.8687 60L45.2741 46.7568C48.9551 45.2091 51.5318 41.5783 51.5318 37.3452V10.2231C51.5318 4.5845 46.964 0.00834851 41.3171 0.00834851V0ZM49.022 37.3368C49.022 40.7501 46.7967 43.6447 43.7181 44.657L42.9484 44.908L42.0114 53.7423L34.9172 45.0418H10.7231C6.47323 45.0418 3.0265 41.5951 3.01813 37.3368V10.2147C3.01813 5.96486 6.46486 2.51813 10.7231 2.50976H41.3254C45.5753 2.51813 49.022 5.95649 49.0304 10.2147V37.3368H49.022ZM25.6394 13.4356C20.5446 13.4356 16.4202 17.5599 16.4202 22.6548C16.4202 25.0641 17.0226 27.9671 18.4531 30.4099C19.2144 31.7401 20.2936 32.9448 21.6573 33.7646C21.2725 34.3168 21.0466 34.986 21.0466 35.7139C21.0466 37.6045 22.5775 39.1439 24.4766 39.1439H26.5346C28.4253 39.1439 29.9646 37.6129 29.9646 35.7139C29.9646 35.0362 29.7638 34.4088 29.4208 33.8818C30.8932 33.0619 32.0561 31.807 32.8508 30.4099C34.2647 27.9587 34.8503 25.0641 34.8586 22.6548C34.8586 17.5599 30.7342 13.4356 25.6394 13.4356ZM26.5262 36.6341H24.4682C23.9579 36.6341 23.548 36.2242 23.548 35.7139C23.548 35.2035 23.9579 34.7936 24.4682 34.7936C24.5017 34.7936 24.5268 34.7853 24.5519 34.7853C24.9032 34.8355 25.263 34.8606 25.6394 34.8606H25.6729C25.9573 34.8606 26.2334 34.8271 26.5095 34.7936H26.5262C27.0365 34.7936 27.4465 35.2035 27.4465 35.7139C27.4465 36.2242 27.0365 36.6341 26.5262 36.6341ZM30.6757 29.1467C29.6467 30.8617 28.3249 32.0329 26.4091 32.2922L26.3924 30.7948C26.4928 30.7362 26.5848 30.6693 26.6601 30.5856L29.8307 27.2225C30.3076 26.7206 30.2825 25.9258 29.7805 25.449C29.2786 24.9721 28.4838 24.9972 28.007 25.4991L26.3589 27.2476V25.9342L23.1046 21.6843C22.6863 21.1322 21.8999 21.0234 21.3478 21.4501C20.7956 21.8684 20.6869 22.6548 21.1135 23.2069L23.8491 26.7959L23.8993 32.0664C22.5106 31.5979 21.4565 30.5605 20.6116 29.1467C19.4738 27.2142 18.9216 24.6458 18.9216 22.6548C18.9216 18.9487 21.925 15.9537 25.6311 15.9453C29.3372 15.9453 32.3321 18.9487 32.3405 22.6548C32.3405 24.6458 31.8134 27.2225 30.6757 29.1467Z" fill="#1D1D1F"/>
</svg>
