<svg width="61" height="60" viewBox="0 0 61 60" fill="none" xmlns="http://www.w3.org/2000/svg">
<path d="M29.6229 22.4284C21.4248 14.4899 9.77207 24.7912 19.8496 34.8688C26.0519 41.071 28.7816 44.0961 29.6229 45.0448C30.4552 44.0961 33.185 41.08 39.3962 34.8688C49.4737 24.7912 37.821 14.4899 29.6229 22.4284Z" fill="#2BC48A"/>
<path d="M58.2625 28.6575H51.9618C51.219 28.6575 50.6193 29.2572 50.6193 30C50.6193 30.7428 51.219 31.3425 51.9618 31.3425H58.2625C59.0054 31.3425 59.605 30.7428 59.605 30C59.605 29.2572 59.0054 28.6575 58.2625 28.6575ZM9.48569 30C9.48569 29.2572 8.88605 28.6575 8.14321 28.6575H1.84248C1.09964 28.6575 0.5 29.2572 0.5 30C0.5 30.7428 1.09964 31.3425 1.84248 31.3425H8.14321C8.88605 31.3425 9.48569 30.7428 9.48569 30ZM29.605 51.0143C28.8622 51.0143 28.2625 51.614 28.2625 52.3568V58.6575C28.2625 59.4004 28.8622 60 29.605 60C30.3479 60 30.9475 59.4004 30.9475 58.6575V52.3568C30.9475 51.614 30.3479 51.0143 29.605 51.0143ZM29.605 0C28.8622 0 28.2625 0.599642 28.2625 1.34248V7.6432C28.2625 8.38604 28.8622 8.98568 29.605 8.98568C30.3479 8.98568 30.9475 8.38604 30.9475 7.6432V1.34248C30.9475 0.599642 30.3479 0 29.605 0ZM9.73628 40.3371L4.33056 43.577C3.69512 43.9618 3.48927 44.7852 3.86516 45.4206C4.11576 45.8413 4.56325 46.074 5.01969 46.074C5.25239 46.074 5.49404 46.0113 5.70884 45.886L11.1146 42.6462C11.75 42.2703 11.9559 41.4379 11.58 40.8025C11.1951 40.1671 10.3717 39.9612 9.73628 40.3371ZM55.3449 14.5973C54.969 13.9618 54.1366 13.756 53.5012 14.1319L48.0955 17.3717C47.46 17.7566 47.2542 18.58 47.6301 19.2154C47.8807 19.636 48.3282 19.8687 48.7846 19.8687C49.0173 19.8687 49.2589 19.8061 49.4737 19.6808L54.8795 16.4409C55.5149 16.065 55.7208 15.2327 55.3449 14.5973ZM19.4022 48.3831C18.7578 48.0251 17.9344 48.2578 17.5764 48.9021L14.5155 54.4153C14.1575 55.0597 14.3902 55.8831 15.0346 56.2411C15.2405 56.3574 15.4642 56.4111 15.6879 56.4111C16.1623 56.4111 16.6187 56.1605 16.8604 55.722L19.9213 50.2088C20.2792 49.5644 20.0465 48.741 19.4022 48.3831ZM44.1665 3.7679C43.5131 3.4099 42.6987 3.6426 42.3407 4.28699L39.2798 9.80012C38.9218 10.4445 39.1545 11.2679 39.7989 11.6259C40.0048 11.7422 40.2285 11.7959 40.4523 11.7959C40.9266 11.7959 41.3831 11.5453 41.6247 11.1068L44.6856 5.60263C45.0436 4.94928 44.8109 4.13485 44.1665 3.77685V3.7679ZM4.33056 16.432L9.73628 19.6718C9.95108 19.7971 10.1927 19.8598 10.4254 19.8598C10.8819 19.8598 11.3294 19.6271 11.58 19.2064C11.9559 18.571 11.75 17.7476 11.1146 17.3628L5.70884 14.1229C5.0734 13.7381 4.25001 13.9529 3.86516 14.5883C3.48032 15.2237 3.69512 16.0471 4.33056 16.432ZM16.8693 4.29594C16.5113 3.65155 15.6879 3.41885 15.0436 3.77685C14.3992 4.13485 14.1665 4.94928 14.5245 5.60263L17.5853 11.1158C17.827 11.5543 18.2924 11.8049 18.7578 11.8049C18.9815 11.8049 19.2053 11.7512 19.4111 11.6348C20.0555 11.2768 20.2971 10.4535 19.9302 9.80907L16.8693 4.29594Z" fill="#1D1D1F"/>
<path d="M34.25 33.4636L60.6074 40.355L50.8789 43.7918L55.8371 48.75L50.1361 54.4421L45.4463 49.824L42.7972 58.1474L34.2411 33.4636H34.25ZM50.1361 50.6563L52.0513 48.75L45.9744 42.6731L51.4606 40.7309L38.4386 37.33L42.7077 49.6361L44.2381 44.8389L50.145 50.6563H50.1361Z" fill="#1D1D1F"/>
</svg>
