<svg width="20" height="20" viewBox="0 0 20 20" fill="none" xmlns="http://www.w3.org/2000/svg">
<path d="M10.375 4.80859C13.082 4.80859 15.3164 7.04297 15.3164 9.75C15.3164 12.5 13.082 14.6914 10.375 14.6914C7.625 14.6914 5.43359 12.5 5.43359 9.75C5.43359 7.04297 7.625 4.80859 10.375 4.80859ZM10.375 12.9727C12.1367 12.9727 13.5547 11.5547 13.5547 9.75C13.5547 7.98828 12.1367 6.57031 10.375 6.57031C8.57031 6.57031 7.15234 7.98828 7.15234 9.75C7.15234 11.5547 8.61328 12.9727 10.375 12.9727ZM16.6484 4.63672C16.6484 3.99219 16.1328 3.47656 15.4883 3.47656C14.8438 3.47656 14.3281 3.99219 14.3281 4.63672C14.3281 5.28125 14.8438 5.79688 15.4883 5.79688C16.1328 5.79688 16.6484 5.28125 16.6484 4.63672ZM19.9141 5.79688C20 7.38672 20 12.1562 19.9141 13.7461C19.8281 15.293 19.4844 16.625 18.3672 17.7852C17.25 18.9023 15.875 19.2461 14.3281 19.332C12.7383 19.418 7.96875 19.418 6.37891 19.332C4.83203 19.2461 3.5 18.9023 2.33984 17.7852C1.22266 16.625 0.878906 15.293 0.792969 13.7461C0.707031 12.1562 0.707031 7.38672 0.792969 5.79688C0.878906 4.25 1.22266 2.875 2.33984 1.75781C3.5 0.640625 4.83203 0.296875 6.37891 0.210938C7.96875 0.125 12.7383 0.125 14.3281 0.210938C15.875 0.296875 17.25 0.640625 18.3672 1.75781C19.4844 2.875 19.8281 4.25 19.9141 5.79688ZM17.8516 15.4219C18.3672 14.1758 18.2383 11.168 18.2383 9.75C18.2383 8.375 18.3672 5.36719 17.8516 4.07812C17.5078 3.26172 16.8633 2.57422 16.0469 2.27344C14.7578 1.75781 11.75 1.88672 10.375 1.88672C8.95703 1.88672 5.94922 1.75781 4.70312 2.27344C3.84375 2.61719 3.19922 3.26172 2.85547 4.07812C2.33984 5.36719 2.46875 8.375 2.46875 9.75C2.46875 11.168 2.33984 14.1758 2.85547 15.4219C3.19922 16.2812 3.84375 16.9258 4.70312 17.2695C5.94922 17.7852 8.95703 17.6562 10.375 17.6562C11.75 17.6562 14.7578 17.7852 16.0469 17.2695C16.8633 16.9258 17.5508 16.2812 17.8516 15.4219Z" fill="#FF003D"/>
</svg>
