<svg width="33" height="70" viewBox="0 0 33 70" fill="none" xmlns="http://www.w3.org/2000/svg">
<path d="M20.1795 23.9469H12.5879C5.9121 23.9469 0.509158 29.359 0.5 36.0348C0.5 36.044 0.5 36.0623 0.5 36.0714V57.9121C0.5 64.5879 5.9121 70 12.5879 70H20.1795C26.8553 70 32.2674 64.5879 32.2674 57.9121V36.0348C32.2674 29.359 26.8553 23.9469 20.1795 23.9469ZM29.5201 36.0348V40.1648H17.0934V38.489C18.6868 37.9213 19.8407 36.4103 19.8407 34.6246V32.7931C19.8407 30.9982 18.6868 29.4963 17.0934 28.9286V26.6942H20.1795C25.3352 26.6942 29.511 30.8791 29.5201 36.0348ZM17.0843 34.6246C17.0843 35.3846 16.4707 35.9982 15.7106 35.9982C14.9506 35.9982 14.337 35.3846 14.337 34.6246V32.7931C14.337 32.033 14.9506 31.4194 15.7106 31.4194C16.4707 31.4194 17.0843 32.033 17.0843 32.7931V34.6246ZM12.5421 26.6942H12.5788H14.337V28.9286C12.7436 29.4963 11.5898 31.0073 11.5898 32.7931V34.6246C11.5898 36.4194 12.7436 37.9213 14.337 38.489V40.1648H3.24725V35.8608C3.34798 30.7967 7.45973 26.7125 12.5421 26.685V26.6942ZM20.1703 67.2528H12.5788C7.42308 67.2528 3.23811 63.0678 3.23811 57.9121V42.9213H29.511V57.9121C29.511 63.0678 25.326 67.2436 20.1703 67.2528Z" fill="#1D1D1F"/>
<path d="M17.0659 23.9469C16.9927 21.7857 16.7729 20.1831 16.1685 18.9286C15.6648 17.7747 14.4102 16.9048 13.1557 16.9597C11.5256 16.9963 10.033 17.8113 8.06409 19.0201C7.30402 19.4963 6.56225 19.6886 5.91207 19.6886C4.39193 19.652 3.48534 18.7729 3.48534 17.674C3.48534 16.978 3.85165 15.9432 5.18865 14.7253C6.38828 13.608 9.40109 11.859 12.7894 9.74358C16.1868 7.60989 20.0329 5.04578 23.1648 1.95971L21.2326 0C18.3663 2.82967 14.6758 5.31135 11.3333 7.40842C7.97252 9.5238 5.01464 11.1813 3.33881 12.6923C1.6172 14.2491 0.747253 15.989 0.747253 17.674C0.747253 19.0568 1.36996 20.3022 2.32235 21.1355C3.28388 21.9688 4.55677 22.4267 5.92124 22.4267C7.10256 22.4267 8.35715 22.0787 9.53846 21.337C11.3333 20.174 12.6886 19.6612 13.1648 19.6978C13.4945 19.7527 13.4029 19.6428 13.7143 20.1374C14.0073 20.6868 14.2546 21.9872 14.3278 23.9377H17.0751L17.0659 23.9469Z" fill="#2BC48A"/>
<path d="M14.5934 58.5714C13.5769 59.5879 13.5861 61.2271 14.5934 62.2344C15.6099 63.2509 17.2491 63.2418 18.2564 62.2344C19.2637 61.2271 19.2729 59.5788 18.2564 58.5714C17.2399 57.5641 15.6007 57.5549 14.5934 58.5714Z" fill="#2BC48A"/>
<path d="M29.5201 36.0347V40.1648H17.0934V38.489C18.6868 37.9212 19.8406 36.4102 19.8406 34.6245V32.793C19.8406 30.9981 18.6868 29.4963 17.0934 28.9285V26.6941H20.1795C25.3351 26.6941 29.5109 30.8791 29.5201 36.0347Z" fill="#2BC48A"/>
<path d="M12.5513 26.6942H12.5879H14.3462V28.9286C12.7528 29.4964 11.5989 31.0074 11.5989 32.7931V34.6246C11.5989 36.4195 12.7528 37.9213 14.3462 38.4891V40.1649H3.25641V35.8609C3.35714 30.7968 7.46885 26.7125 12.5513 26.6851V26.6942Z" fill="#2BC48A"/>
</svg>
