<svg width="56" height="41" viewBox="0 0 56 41" fill="none" xmlns="http://www.w3.org/2000/svg">
<path d="M40.5534 12.6922C41.76 12.6922 42.7363 11.7159 42.7363 10.5094C42.7363 9.30287 41.76 8.32654 40.5534 8.32654C39.3469 8.32654 38.3706 9.30287 38.3706 10.5094C38.3706 11.7159 39.3469 12.6922 40.5534 12.6922ZM53.1188 36.8624C53.1188 37.3228 52.7457 37.6959 52.2853 37.6959H3.71479C3.25441 37.6959 2.88135 37.3228 2.88135 36.8624V26.4482L15.0577 16.2959L25.7338 27.369L34.8225 20.5029L53.1108 33.0047V36.8544L53.1188 36.8624Z" fill="#2BC48A"/>
<path d="M52.2853 0H3.71474C1.93671 0 0.5 1.44467 0.5 3.21476V36.8545C0.5 38.6246 1.93671 40.0693 3.71474 40.0693H52.2853C54.0633 40.0693 55.5 38.6326 55.5 36.8545V3.21476C55.5 1.43673 54.0633 0 52.2853 0ZM53.1187 36.8625C53.1187 37.3229 52.7456 37.6959 52.2853 37.6959H3.71474C3.25436 37.6959 2.8813 37.3229 2.8813 36.8625V26.4483L15.0577 16.296L25.7338 27.369L34.8224 20.503L53.1108 33.0048V36.8545L53.1187 36.8625ZM53.1187 30.1234L34.7669 17.574L25.9957 24.2019L15.2482 13.0495L2.88923 23.3446V3.21476C2.88923 2.75438 3.2623 2.3813 3.72269 2.3813H52.2932C52.7536 2.3813 53.1267 2.75438 53.1267 3.21476V30.1234H53.1187ZM40.5534 5.94532C38.0292 5.94532 35.9892 7.9853 35.9892 10.5095C35.9892 13.0336 38.0292 15.0736 40.5534 15.0736C43.0776 15.0736 45.1175 13.0336 45.1175 10.5095C45.1175 7.9853 43.0776 5.94532 40.5534 5.94532ZM40.5534 12.6923C39.3469 12.6923 38.3705 11.716 38.3705 10.5095C38.3705 9.30295 39.3469 8.32662 40.5534 8.32662C41.7599 8.32662 42.7363 9.30295 42.7363 10.5095C42.7363 11.716 41.7599 12.6923 40.5534 12.6923Z" fill="#1D1D1F"/>
</svg>
