<svg width="54" height="55" viewBox="0 0 54 55" fill="none" xmlns="http://www.w3.org/2000/svg">
<path d="M34.703 52.5714H10.6516C7.28394 52.5714 4.44245 50.4099 3.38196 47.4065H41.9726C40.9202 50.4099 38.0707 52.5633 34.703 52.5714ZM27.8462 28.4795C27.8462 28.4795 27.8705 28.4957 27.8867 28.5038C28.3319 28.7871 29.4491 29.5481 30.7443 30.8433C31.6105 31.7096 32.3391 32.6001 32.8491 33.2639C33.3349 33.9034 33.602 34.3082 33.6263 34.3486C32.9544 35.1582 31.9748 35.9192 30.4286 36.4615C29.7243 36.7044 29.0605 36.8015 28.4129 36.8015C26.2028 36.8177 24.1223 35.5225 22.5923 34.0653C22.1632 33.6605 21.7828 33.2477 21.4589 32.8591C23.7499 32.5839 25.0776 31.0295 26.1543 29.9205C26.7209 29.3538 27.239 28.8681 27.8381 28.4795H27.8462ZM50.7399 13.5273L49.0561 15.2112L47.4451 13.5921L49.1289 11.9083C49.307 11.7302 49.5256 11.6411 49.7685 11.6411C50.0032 11.6411 50.2299 11.7302 50.408 11.9083L50.7399 12.2402C50.918 12.4183 51.0071 12.6449 51.0071 12.8797C51.0071 13.1145 50.918 13.3411 50.7399 13.5192V13.5273Z" fill="#2BC48A"/>
<path d="M53.4357 12.8878C53.4357 12.0378 53.1038 11.1797 52.4561 10.5321L52.1242 10.2002C51.4766 9.55254 50.6104 9.22064 49.7604 9.22064C48.9104 9.22064 48.0442 9.54444 47.3965 10.2002L44.8384 12.7583V10.1435C44.8384 4.54151 40.2969 0 34.6949 0H10.6435C5.04151 0 0.5 4.54151 0.5 10.1435V44.8565C0.5 50.4585 5.04151 55 10.6435 55H34.6949C40.2969 55 44.8384 50.4585 44.8384 44.8565V22.8532L52.4561 15.2355C53.1038 14.5879 53.4357 13.7298 53.4357 12.8797V12.8878ZM27.8462 28.4795C27.8462 28.4795 27.8705 28.4957 27.8867 28.5038C28.3319 28.7872 29.4491 29.5481 30.7443 30.8434C31.6105 31.7096 32.3391 32.6001 32.8491 33.2639C33.3349 33.9034 33.602 34.3082 33.6263 34.3487C32.9544 35.1582 31.9748 35.9192 30.4286 36.4616C29.7243 36.7044 29.0605 36.8016 28.4129 36.8016C26.2028 36.8178 24.1223 35.5225 22.5923 34.0653C22.1632 33.6606 21.7827 33.2477 21.4589 32.8591C23.7499 32.5839 25.0776 31.0296 26.1543 29.9205C26.7209 29.3538 27.239 28.8681 27.8381 28.4795H27.8462ZM34.8568 31.8958C34.2982 31.151 33.4725 30.1391 32.4606 29.1191C31.8777 28.5362 31.3353 28.0586 30.8496 27.6619C30.8658 27.6619 30.8739 27.6619 30.8901 27.6619C31.2705 27.6619 31.6915 27.6943 32.1529 27.759L35.0592 30.6653C35.0349 31.0053 34.9782 31.4343 34.8649 31.8958H34.8568ZM36.0387 28.2205L34.4196 26.6095L45.7127 15.3165L47.3237 16.9274L36.0306 28.2205H36.0387ZM34.6949 52.5714H10.6435C7.27583 52.5714 4.43436 50.4099 3.37386 47.4065H41.9645C40.9121 50.4099 38.0626 52.5633 34.6949 52.5714ZM42.4098 44.8565C42.4098 44.897 42.4098 44.9374 42.4098 44.9779H2.94481C2.94481 44.9374 2.94481 44.897 2.94481 44.8565V10.1435C2.9529 5.88534 6.40153 2.43671 10.6597 2.42861H34.7111C38.9692 2.42861 42.4179 5.88534 42.426 10.1435V15.1869L32.2825 25.3304C31.7967 25.2738 31.3353 25.2414 30.8981 25.2333C27.6276 25.2009 25.709 26.8686 24.4299 28.2205C23.0618 29.6129 22.3413 30.4629 20.7384 30.471C20.3742 30.471 19.9451 30.4224 19.4432 30.3091C19.3865 30.2929 19.2975 30.2767 19.1598 30.2767C18.8684 30.2443 18.3503 30.4629 18.1398 30.811C17.9294 31.1429 17.9294 31.3777 17.9213 31.5153C17.9455 31.9282 18.0184 31.9929 18.067 32.1467C18.4394 32.9644 19.4999 34.5268 21.2727 36.1378C23.0213 37.7002 25.4581 39.2221 28.421 39.2302C29.3276 39.2302 30.2748 39.0845 31.2301 38.7526C34.023 37.7973 35.6825 36.0487 36.5244 34.3568C37.3825 32.6648 37.504 31.0701 37.5121 30.22V30.2039L42.426 25.29V44.8646L42.4098 44.8565ZM50.7318 13.5193L49.048 15.2031L47.437 13.584L49.1209 11.9002C49.299 11.7221 49.5175 11.6331 49.7604 11.6331C49.9951 11.6331 50.2218 11.7221 50.3999 11.9002L50.7318 12.2321C50.9099 12.4102 50.999 12.6369 50.999 12.8716C50.999 13.1064 50.9099 13.3331 50.7318 13.5112V13.5193Z" fill="#1D1D1F"/>
<path d="M20.7384 51.2599C20.0665 51.2599 19.5241 50.7175 19.5241 50.0456C19.5241 49.3737 20.0665 48.8313 20.7384 48.8313H23.3694C24.0413 48.8313 24.5837 49.3737 24.5837 50.0456C24.5837 50.7175 24.0413 51.2599 23.3694 51.2599H20.7384Z" fill="#1D1D1F"/>
<path d="M33.683 11.1876V8.75903H36.1116V11.1876H33.683ZM28.8258 11.1876V8.75903H31.2544V11.1876H28.8258ZM23.9685 11.1876V8.75903H26.3971V11.1876H23.9685ZM19.1113 11.1876V8.75903H21.5399V11.1876H19.1113ZM14.2541 11.1876V8.75903H16.6827V11.1876H14.2541ZM9.39685 11.1876V8.75903H11.8255V11.1876H9.39685Z" fill="#2BC48A"/>
</svg>
