<svg width="19" height="19" viewBox="0 0 19 19" fill="none" xmlns="http://www.w3.org/2000/svg">
<path d="M15.75 0.75C17.1172 0.75 18.25 1.88281 18.25 3.25V15.75C18.25 17.1562 17.1172 18.25 15.75 18.25H3.25C1.84375 18.25 0.75 17.1562 0.75 15.75V3.25C0.75 1.88281 1.84375 0.75 3.25 0.75H15.75ZM14.4609 12.0781C14.5391 11.8047 14.3828 11.4922 14.1094 11.375L12 10.4766C11.7266 10.3594 11.4531 10.4375 11.2969 10.6328L10.4375 11.6875C9.07031 11.0234 7.97656 9.92969 7.3125 8.5625L8.36719 7.70312C8.5625 7.54688 8.64062 7.27344 8.52344 7L7.625 4.89062C7.50781 4.61719 7.19531 4.46094 6.92188 4.53906L4.96875 4.96875C4.69531 5.04688 4.5 5.28125 4.5 5.59375C4.5 10.5156 8.48438 14.5 13.4062 14.5C13.7188 14.5 13.9531 14.3438 13.9922 14.0312L14.4609 12.0781Z" fill="white"/>
</svg>
