<svg width="56" height="60" viewBox="0 0 56 60" fill="none" xmlns="http://www.w3.org/2000/svg">
<path d="M8.9538 44.3321C5.61069 44.3321 2.90741 41.6209 2.89941 38.2778V37.334H28.5566V44.3321H8.9538Z" fill="#2BC48A"/>
<path d="M53.5418 43.6843C53.5418 44.0203 53.2619 44.3082 52.918 44.3082H31.5717C31.2278 44.3082 30.9479 44.0283 30.9479 43.6843V41.6449H53.5338V43.6843H53.5418Z" fill="#2BC48A"/>
<path d="M53.5419 33.8069H30.9559V17.6832C30.9559 17.3393 31.2359 17.0593 31.5798 17.0593H33.7472V21.4022C33.7472 22.066 34.283 22.6018 34.9469 22.6018C35.6107 22.6018 36.1465 22.066 36.1465 21.4022V17.0593H40.3934V26.6887C40.3934 27.3526 40.9293 27.8884 41.5931 27.8884C42.2569 27.8884 42.7928 27.3526 42.7928 26.6887V17.0593H48.2473V21.4022C48.2473 22.066 48.7832 22.6018 49.447 22.6018C50.1108 22.6018 50.6467 22.066 50.6467 21.4022V17.0593H52.9181C53.262 17.0593 53.5419 17.3393 53.5419 17.6832V33.8069Z" fill="#2BC48A"/>
<path d="M2.89941 8.45368C2.89941 5.11057 5.61069 2.40729 8.9538 2.39929H38.3699C41.7131 2.39929 44.4163 5.11057 44.4243 8.45368V9.60538H2.89941V8.45368Z" fill="#2BC48A"/>
<path d="M52.918 14.6601H46.8236V8.45375C46.8236 3.783 43.0406 0 38.3699 0H8.95374C4.28299 0 0.5 3.783 0.5 8.45375V38.2778C0.5 42.9485 4.28299 46.7315 8.95374 46.7315H37.4741V55.0733C37.4741 57.7926 39.6815 60 42.4008 60C45.1201 60 47.3275 57.7926 47.3275 55.0733V46.6995H52.918C54.5896 46.6995 55.9412 45.3479 55.9412 43.6764V17.6833C55.9412 16.0117 54.5896 14.6601 52.918 14.6601ZM2.89936 8.45375C2.89936 5.11064 5.61064 2.40736 8.95374 2.39936H38.3699C41.713 2.39936 44.4163 5.11064 44.4243 8.45375V9.60544H2.89936V8.45375ZM8.95374 44.3322C5.61064 44.3322 2.90736 41.6209 2.89936 38.2778V37.334H28.5565V44.3322H8.95374ZM28.5565 17.6833V34.9347H2.89936V12.0048H44.4243V14.6601H31.5797C29.9082 14.6601 28.5565 16.0117 28.5565 17.6833ZM44.9281 55.0733C44.9281 56.4729 43.7924 57.6006 42.4008 57.6006C41.0092 57.6006 39.8735 56.4649 39.8735 55.0733V46.6995H44.9281V55.0733ZM53.5418 43.6764C53.5418 44.0123 53.2619 44.3002 52.918 44.3002H31.5717C31.2278 44.3002 30.9479 44.0203 30.9479 43.6764V41.6369H53.5338V43.6764H53.5418ZM53.5418 39.2375H30.9559V36.1983H53.5418V39.2375ZM53.5418 33.799H30.9559V17.6753C30.9559 17.3314 31.2358 17.0515 31.5797 17.0515H33.7471V21.3943C33.7471 22.0581 34.283 22.594 34.9468 22.594C35.6106 22.594 36.1465 22.0581 36.1465 21.3943V17.0515H40.3934V26.6809C40.3934 27.3447 40.9292 27.8806 41.593 27.8806C42.2569 27.8806 42.7927 27.3447 42.7927 26.6809V17.0515H48.2473V21.3943C48.2473 22.0581 48.7831 22.594 49.4469 22.594C50.1108 22.594 50.6466 22.0581 50.6466 21.3943V17.0515H52.918C53.2619 17.0515 53.5418 17.3314 53.5418 17.6753V33.799ZM11.841 4.94267H6.90629C6.24247 4.94267 5.70661 5.47853 5.70661 6.14235C5.70661 6.80618 6.24247 7.34203 6.90629 7.34203H11.841C12.5048 7.34203 13.0407 6.80618 13.0407 6.14235C13.0407 5.47853 12.5048 4.94267 11.841 4.94267ZM40.1694 4.94267H35.2347C34.5709 4.94267 34.035 5.47853 34.035 6.14235C34.035 6.80618 34.5709 7.34203 35.2347 7.34203H40.1694C40.8332 7.34203 41.3691 6.80618 41.3691 6.14235C41.3691 5.47853 40.8332 4.94267 40.1694 4.94267Z" fill="#1D1D1F"/>
<path d="M10.3134 22.9379C10.3134 19.3309 13.2326 16.4117 16.8476 16.4037C19.8628 16.4037 22.3102 18.851 22.3102 21.8662C22.3102 24.4095 20.2467 26.473 17.7034 26.481C15.536 26.481 13.7764 24.7215 13.7764 22.554C13.7764 20.6825 15.288 19.1709 17.1595 19.1709C18.1113 19.1709 18.951 19.6188 19.4949 20.3226C18.959 19.4189 17.9833 18.8111 16.8556 18.8111C14.5762 18.8111 12.7287 20.6585 12.7287 22.9459C12.7287 25.9611 15.1761 28.4005 18.1913 28.4085V30.8079C13.8484 30.8079 10.3293 27.2888 10.3293 22.9459L10.3134 22.9379ZM17.5834 22.3941H17.5034V22.3141C17.6154 22.3141 17.7034 22.2261 17.7034 22.1142C17.7034 21.8102 17.4554 21.5623 17.1595 21.5623C16.6717 21.5623 16.2638 21.9222 16.1918 22.3861H17.5914L17.5834 22.3941Z" fill="#2BC48A"/>
</svg>
