<svg width="56" height="50" viewBox="0 0 56 50" fill="none" xmlns="http://www.w3.org/2000/svg">
<path d="M31.7899 13.0059H24.0806C22.8882 13.0059 21.8159 13.7361 21.3815 14.8361H34.7664L34.7016 14.7252C34.1193 13.6622 33.0008 13.0059 31.7899 13.0059Z" fill="#2BC48A"/>
<path d="M27.3067 28.6277C30.6252 28.6277 33.3059 31.3176 33.3151 34.6361C33.3151 37.9546 30.6252 40.6352 27.3067 40.6445C23.9883 40.6445 21.3076 37.9546 21.2983 34.6361V34.6176C21.2983 34.6176 22.084 34.7563 22.4445 34.7563C25.1992 34.7563 27.4269 32.5285 27.4269 29.7739C27.4269 29.3764 27.3067 28.6277 27.3067 28.6277Z" fill="#2BC48A"/>
<path d="M49.1866 20.7798H30.2832C36.8185 22.0554 41.7546 27.8142 41.7546 34.7193C41.7546 38.0008 40.6269 41.0235 38.7597 43.4268H49.1958V20.7798H49.1866Z" fill="#2BC48A"/>
<path d="M6.66565 43.4268H16.3253C14.4488 41.0235 13.3303 38.01 13.3303 34.7193C13.3303 27.805 18.2665 22.0554 24.8018 20.7798H6.66565V43.4268Z" fill="#2BC48A"/>
<path d="M37.7336 14.8453C37.0496 12.1924 34.6462 10.2419 31.7807 10.2419H24.3765C21.5109 10.2419 19.1168 12.2016 18.4235 14.8453H0.5V49.5092H55.5V14.8453H37.7336ZM24.3765 13.0151H31.7807C33.084 13.0151 34.2025 13.7638 34.7664 14.8453H21.3815C21.9454 13.7638 23.0639 13.0151 24.3672 13.0151H24.3765ZM16.1034 34.7285C16.1126 28.4151 21.2244 23.3033 27.5471 23.2848C33.8605 23.294 38.9723 28.4058 38.9815 34.7285C38.9723 41.0419 33.8605 46.1537 27.5471 46.163C21.2336 46.1537 16.1219 41.0419 16.1034 34.7285ZM35.1084 46.7453C36.5134 45.8579 37.7429 44.7394 38.7597 43.4361C40.6361 41.0327 41.7546 38.0193 41.7546 34.7285C41.7546 27.8142 36.8185 22.0646 30.2832 20.789C29.3958 20.6134 28.4807 20.5209 27.5378 20.5209C26.595 20.5209 25.6798 20.6134 24.7924 20.789C18.2571 22.0646 13.321 27.8235 13.321 34.7285C13.321 38.01 14.4487 41.0327 16.316 43.4361C17.3328 44.7394 18.5622 45.8672 19.9672 46.7453H3.26386V17.6184H52.7176V46.7361H35.0899L35.1084 46.7453Z" fill="#1D1D1F"/>
<path d="M27.3067 43.4268C32.1597 43.4268 36.0882 39.4982 36.0882 34.6453C36.0882 29.7923 32.1597 25.8638 27.3067 25.8638C26.4471 25.8638 25.6244 25.9932 24.8572 26.215L22.8698 26.7974L24.1639 28.415C24.4782 28.8125 24.6631 29.2747 24.6631 29.7831C24.6631 31.0033 23.674 31.9923 22.4538 31.9923C21.9454 31.9923 21.4832 31.8167 21.0857 31.5024L19.4681 30.2083L18.895 32.1957C18.6731 32.9722 18.5437 33.7856 18.5437 34.6453C18.5437 39.4982 22.4723 43.4268 27.3252 43.4268H27.3067ZM21.2983 34.6268C21.6681 34.7192 22.0471 34.7655 22.4445 34.7655C25.1992 34.7655 27.4269 32.5377 27.4269 29.7831C27.4269 29.3856 27.3807 29.0066 27.2883 28.6369H27.3067C30.6252 28.6369 33.3059 31.3268 33.3151 34.6453C33.3151 37.9638 30.6252 40.6444 27.3067 40.6537C23.9882 40.6537 21.3076 37.9638 21.2983 34.6453V34.6268Z" fill="#1D1D1F"/>
<path d="M50.111 11.4529H42.411C41.6437 11.4529 41.0244 12.0723 41.0244 12.8395C41.0244 13.6067 41.6437 14.2261 42.411 14.2261H50.111C50.8782 14.2261 51.4975 13.6067 51.4975 12.8395C51.4975 12.0723 50.8782 11.4529 50.111 11.4529ZM7.43281 7.70924C6.79499 8.06975 6.5639 8.87395 6.91516 9.51176C7.26642 10.1496 8.07986 10.3807 8.72692 10.0294C9.36473 9.67815 9.60507 8.86471 9.24456 8.22689C8.8933 7.58908 8.07987 7.34874 7.43281 7.70924ZM7.41433 5.16723C8.06139 5.51849 8.86557 5.27815 9.21683 4.63109C9.56809 3.98403 9.32777 3.17983 8.68071 2.82857C8.03365 2.47731 7.22944 2.71765 6.87818 3.36471C6.52692 4.01176 6.76727 4.81597 7.41433 5.16723ZM12.5168 10.1681C11.7866 10.1681 11.1857 10.7597 11.1857 11.4992C11.1857 12.2387 11.7773 12.8303 12.5168 12.8303C13.2563 12.8303 13.8479 12.2387 13.8479 11.4992C13.8479 10.7597 13.2563 10.1681 12.5168 10.1681ZM12.5168 0C11.7866 0 11.1857 0.591597 11.1857 1.33109C11.1857 2.07059 11.7773 2.66218 12.5168 2.66218C13.2563 2.66218 13.8479 2.07059 13.8479 1.33109C13.8479 0.591597 13.2563 0 12.5168 0ZM17.6101 5.11176C18.2479 4.75126 18.4883 3.94706 18.1278 3.30924C17.7765 2.67143 16.963 2.44034 16.316 2.7916C15.6782 3.14286 15.4378 3.9563 15.7983 4.59412C16.1496 5.23193 16.9631 5.47227 17.6101 5.11176ZM17.6286 7.65378C16.9815 7.30252 16.1773 7.54286 15.8261 8.18992C15.4748 8.83698 15.7152 9.64118 16.3622 9.99244C17.0093 10.3437 17.8135 10.1034 18.1647 9.4563C18.516 8.80924 18.2757 8.00504 17.6286 7.65378Z" fill="#2BC48A"/>
</svg>
