<svg width="23" height="22" viewBox="0 0 23 22" fill="none" xmlns="http://www.w3.org/2000/svg">
<path d="M11.625 0.09375C17.4688 0.09375 22.2812 4.90625 22.2812 10.75C22.2812 16.6367 17.4688 21.4062 11.625 21.4062C5.73828 21.4062 0.96875 16.6367 0.96875 10.75C0.96875 4.90625 5.73828 0.09375 11.625 0.09375ZM16.5234 7.35547C16.5664 7.22656 16.5664 7.09766 16.5234 6.92578C16.5234 6.83984 16.4375 6.71094 16.3945 6.66797C16.2656 6.53906 16.0508 6.53906 15.9648 6.53906C15.5781 6.53906 14.9336 6.75391 11.9688 8C10.9375 8.42969 8.875 9.28906 5.78125 10.6641C5.26562 10.8789 5.00781 11.0508 4.96484 11.2656C4.92188 11.6094 5.48047 11.7383 6.125 11.9531C6.68359 12.125 7.41406 12.3398 7.80078 12.3398C8.14453 12.3398 8.53125 12.2109 8.96094 11.9102C11.8398 9.93359 13.3438 8.94531 13.4297 8.94531C13.5156 8.94531 13.6016 8.90234 13.6445 8.94531C13.7305 9.03125 13.7305 9.11719 13.6875 9.16016C13.6445 9.375 10.9375 11.8672 10.7656 12.0391C10.1641 12.6406 9.47656 13.0273 10.5508 13.7148C11.4531 14.3164 11.9688 14.7031 12.9141 15.3047C13.5156 15.6914 13.9883 16.1641 14.5898 16.1211C14.8906 16.0781 15.1914 15.8203 15.3203 15.0039C15.707 13.1562 16.3945 9.03125 16.5234 7.35547Z" fill="#0071E3"/>
</svg>
