<svg width="21" height="21" viewBox="0 0 21 21" fill="none" xmlns="http://www.w3.org/2000/svg">
<path d="M10.5 0.8125C15.8125 0.8125 20.1875 5.1875 20.1875 10.5C20.1875 15.8516 15.8125 20.1875 10.5 20.1875C5.14844 20.1875 0.8125 15.8516 0.8125 10.5C0.8125 5.1875 5.14844 0.8125 10.5 0.8125ZM14.9531 7.41406C14.9922 7.29688 14.9922 7.17969 14.9531 7.02344C14.9531 6.94531 14.875 6.82812 14.8359 6.78906C14.7188 6.67188 14.5234 6.67188 14.4453 6.67188C14.0938 6.67188 13.5078 6.86719 10.8125 8C9.875 8.39062 8 9.17188 5.1875 10.4219C4.71875 10.6172 4.48438 10.7734 4.44531 10.9688C4.40625 11.2812 4.91406 11.3984 5.5 11.5938C6.00781 11.75 6.67188 11.9453 7.02344 11.9453C7.33594 11.9453 7.6875 11.8281 8.07812 11.5547C10.6953 9.75781 12.0625 8.85938 12.1406 8.85938C12.2188 8.85938 12.2969 8.82031 12.3359 8.85938C12.4141 8.9375 12.4141 9.01562 12.375 9.05469C12.3359 9.25 9.875 11.5156 9.71875 11.6719C9.17188 12.2188 8.54688 12.5703 9.52344 13.1953C10.3438 13.7422 10.8125 14.0938 11.6719 14.6406C12.2188 14.9922 12.6484 15.4219 13.1953 15.3828C13.4688 15.3438 13.7422 15.1094 13.8594 14.3672C14.2109 12.6875 14.8359 8.9375 14.9531 7.41406Z" fill="white"/>
</svg>
