<svg width="24" height="17" viewBox="0 0 24 17" fill="none" xmlns="http://www.w3.org/2000/svg">
<path d="M23.0898 3.12109C23.6055 4.92578 23.6055 8.79297 23.6055 8.79297C23.6055 8.79297 23.6055 12.6172 23.0898 14.4648C22.832 15.4961 22.0156 16.2695 21.0273 16.5273C19.1797 17 11.875 17 11.875 17C11.875 17 4.52734 17 2.67969 16.5273C1.69141 16.2695 0.875 15.4961 0.617188 14.4648C0.101562 12.6172 0.101562 8.79297 0.101562 8.79297C0.101562 8.79297 0.101562 4.92578 0.617188 3.12109C0.875 2.08984 1.69141 1.27344 2.67969 1.01562C4.52734 0.5 11.875 0.5 11.875 0.5C11.875 0.5 19.1797 0.5 21.0273 1.01562C22.0156 1.27344 22.832 2.08984 23.0898 3.12109ZM9.46875 12.2734L15.5703 8.79297L9.46875 5.3125V12.2734Z" fill="#FF0000"/>
</svg>
